# parasite.tick - 21 voxels, generated from the authored roster
v -1 1 0
v -1 1 1
v -1 2 0
v -1 2 1
v 0 1 0
v 0 1 1
v 0 2 0
v 0 2 1
v 0 -1 0
v 0 -1 1
v 0 0 0
v 0 0 1
v 1 -1 0
v 1 -1 1
v 1 0 0
v 1 0 1
v 0 0 0
v 0 0 1
v 0 1 0
v 0 1 1
v 1 0 0
v 1 0 1
v 1 1 0
v 1 1 1
v 0 1 0
v 0 1 1
v 0 2 0
v 0 2 1
v 1 1 0
v 1 1 1
v 1 2 0
v 1 2 1
v 0 2 0
v 0 2 1
v 0 3 0
v 0 3 1
v 1 2 0
v 1 2 1
v 1 3 0
v 1 3 1
v 0 3 0
v 0 3 1
v 0 4 0
v 0 4 1
v 1 3 0
v 1 3 1
v 1 4 0
v 1 4 1
v 1 -1 0
v 1 -1 1
v 1 0 0
v 1 0 1
v 2 -1 0
v 2 -1 1
v 2 0 0
v 2 0 1
v 1 0 0
v 1 0 1
v 1 1 0
v 1 1 1
v 2 0 0
v 2 0 1
v 2 1 0
v 2 1 1
v 1 1 0
v 1 1 1
v 1 2 0
v 1 2 1
v 2 1 0
v 2 1 1
v 2 2 0
v 2 2 1
v 1 2 0
v 1 2 1
v 1 3 0
v 1 3 1
v 2 2 0
v 2 2 1
v 2 3 0
v 2 3 1
v 1 3 0
v 1 3 1
v 1 4 0
v 1 4 1
v 2 3 0
v 2 3 1
v 2 4 0
v 2 4 1
v 2 -1 0
v 2 -1 1
v 2 0 0
v 2 0 1
v 3 -1 0
v 3 -1 1
v 3 0 0
v 3 0 1
v 2 0 0
v 2 0 1
v 2 1 0
v 2 1 1
v 3 0 0
v 3 0 1
v 3 1 0
v 3 1 1
v 2 1 0
v 2 1 1
v 2 2 0
v 2 2 1
v 3 1 0
v 3 1 1
v 3 2 0
v 3 2 1
v 2 2 0
v 2 2 1
v 2 3 0
v 2 3 1
v 3 2 0
v 3 2 1
v 3 3 0
v 3 3 1
v 2 3 0
v 2 3 1
v 2 4 0
v 2 4 1
v 3 3 0
v 3 3 1
v 3 4 0
v 3 4 1
v 3 -1 0
v 3 -1 1
v 3 0 0
v 3 0 1
v 4 -1 0
v 4 -1 1
v 4 0 0
v 4 0 1
v 3 0 0
v 3 0 1
v 3 1 0
v 3 1 1
v 4 0 0
v 4 0 1
v 4 1 0
v 4 1 1
v 3 1 0
v 3 1 1
v 3 2 0
v 3 2 1
v 4 1 0
v 4 1 1
v 4 2 0
v 4 2 1
v 3 2 0
v 3 2 1
v 3 3 0
v 3 3 1
v 4 2 0
v 4 2 1
v 4 3 0
v 4 3 1
v 3 3 0
v 3 3 1
v 3 4 0
v 3 4 1
v 4 3 0
v 4 3 1
v 4 4 0
v 4 4 1
f 1 2 4 3
f 5 7 8 6
f 1 5 6 2
f 3 4 8 7
f 1 3 7 5
f 2 6 8 4
f 9 10 12 11
f 13 15 16 14
f 9 13 14 10
f 11 12 16 15
f 9 11 15 13
f 10 14 16 12
f 17 18 20 19
f 21 23 24 22
f 17 21 22 18
f 19 20 24 23
f 17 19 23 21
f 18 22 24 20
f 25 26 28 27
f 29 31 32 30
f 25 29 30 26
f 27 28 32 31
f 25 27 31 29
f 26 30 32 28
f 33 34 36 35
f 37 39 40 38
f 33 37 38 34
f 35 36 40 39
f 33 35 39 37
f 34 38 40 36
f 41 42 44 43
f 45 47 48 46
f 41 45 46 42
f 43 44 48 47
f 41 43 47 45
f 42 46 48 44
f 49 50 52 51
f 53 55 56 54
f 49 53 54 50
f 51 52 56 55
f 49 51 55 53
f 50 54 56 52
f 57 58 60 59
f 61 63 64 62
f 57 61 62 58
f 59 60 64 63
f 57 59 63 61
f 58 62 64 60
f 65 66 68 67
f 69 71 72 70
f 65 69 70 66
f 67 68 72 71
f 65 67 71 69
f 66 70 72 68
f 73 74 76 75
f 77 79 80 78
f 73 77 78 74
f 75 76 80 79
f 73 75 79 77
f 74 78 80 76
f 81 82 84 83
f 85 87 88 86
f 81 85 86 82
f 83 84 88 87
f 81 83 87 85
f 82 86 88 84
f 89 90 92 91
f 93 95 96 94
f 89 93 94 90
f 91 92 96 95
f 89 91 95 93
f 90 94 96 92
f 97 98 100 99
f 101 103 104 102
f 97 101 102 98
f 99 100 104 103
f 97 99 103 101
f 98 102 104 100
f 105 106 108 107
f 109 111 112 110
f 105 109 110 106
f 107 108 112 111
f 105 107 111 109
f 106 110 112 108
f 113 114 116 115
f 117 119 120 118
f 113 117 118 114
f 115 116 120 119
f 113 115 119 117
f 114 118 120 116
f 121 122 124 123
f 125 127 128 126
f 121 125 126 122
f 123 124 128 127
f 121 123 127 125
f 122 126 128 124
f 129 130 132 131
f 133 135 136 134
f 129 133 134 130
f 131 132 136 135
f 129 131 135 133
f 130 134 136 132
f 137 138 140 139
f 141 143 144 142
f 137 141 142 138
f 139 140 144 143
f 137 139 143 141
f 138 142 144 140
f 145 146 148 147
f 149 151 152 150
f 145 149 150 146
f 147 148 152 151
f 145 147 151 149
f 146 150 152 148
f 153 154 156 155
f 157 159 160 158
f 153 157 158 154
f 155 156 160 159
f 153 155 159 157
f 154 158 160 156
f 161 162 164 163
f 165 167 168 166
f 161 165 166 162
f 163 164 168 167
f 161 163 167 165
f 162 166 168 164
