# weird.botfly - 33 voxels, generated from the authored roster
v -1 1 0
v -1 1 1
v -1 2 0
v -1 2 1
v 0 1 0
v 0 1 1
v 0 2 0
v 0 2 1
v 0 0 0
v 0 0 1
v 0 1 0
v 0 1 1
v 1 0 0
v 1 0 1
v 1 1 0
v 1 1 1
v 0 0 1
v 0 0 2
v 0 1 1
v 0 1 2
v 1 0 1
v 1 0 2
v 1 1 1
v 1 1 2
v 0 1 0
v 0 1 1
v 0 2 0
v 0 2 1
v 1 1 0
v 1 1 1
v 1 2 0
v 1 2 1
v 0 1 1
v 0 1 2
v 0 2 1
v 0 2 2
v 1 1 1
v 1 1 2
v 1 2 1
v 1 2 2
v 0 2 0
v 0 2 1
v 0 3 0
v 0 3 1
v 1 2 0
v 1 2 1
v 1 3 0
v 1 3 1
v 0 2 1
v 0 2 2
v 0 3 1
v 0 3 2
v 1 2 1
v 1 2 2
v 1 3 1
v 1 3 2
v 1 0 0
v 1 0 1
v 1 1 0
v 1 1 1
v 2 0 0
v 2 0 1
v 2 1 0
v 2 1 1
v 1 0 1
v 1 0 2
v 1 1 1
v 1 1 2
v 2 0 1
v 2 0 2
v 2 1 1
v 2 1 2
v 1 1 0
v 1 1 1
v 1 2 0
v 1 2 1
v 2 1 0
v 2 1 1
v 2 2 0
v 2 2 1
v 1 1 1
v 1 1 2
v 1 2 1
v 1 2 2
v 2 1 1
v 2 1 2
v 2 2 1
v 2 2 2
v 1 2 0
v 1 2 1
v 1 3 0
v 1 3 1
v 2 2 0
v 2 2 1
v 2 3 0
v 2 3 1
v 1 2 1
v 1 2 2
v 1 3 1
v 1 3 2
v 2 2 1
v 2 2 2
v 2 3 1
v 2 3 2
v 2 0 0
v 2 0 1
v 2 1 0
v 2 1 1
v 3 0 0
v 3 0 1
v 3 1 0
v 3 1 1
v 2 0 1
v 2 0 2
v 2 1 1
v 2 1 2
v 3 0 1
v 3 0 2
v 3 1 1
v 3 1 2
v 2 1 0
v 2 1 1
v 2 2 0
v 2 2 1
v 3 1 0
v 3 1 1
v 3 2 0
v 3 2 1
v 2 1 1
v 2 1 2
v 2 2 1
v 2 2 2
v 3 1 1
v 3 1 2
v 3 2 1
v 3 2 2
v 2 2 0
v 2 2 1
v 2 3 0
v 2 3 1
v 3 2 0
v 3 2 1
v 3 3 0
v 3 3 1
v 2 2 1
v 2 2 2
v 2 3 1
v 2 3 2
v 3 2 1
v 3 2 2
v 3 3 1
v 3 3 2
v 3 0 0
v 3 0 1
v 3 1 0
v 3 1 1
v 4 0 0
v 4 0 1
v 4 1 0
v 4 1 1
v 3 0 1
v 3 0 2
v 3 1 1
v 3 1 2
v 4 0 1
v 4 0 2
v 4 1 1
v 4 1 2
v 3 1 0
v 3 1 1
v 3 2 0
v 3 2 1
v 4 1 0
v 4 1 1
v 4 2 0
v 4 2 1
v 3 1 1
v 3 1 2
v 3 2 1
v 3 2 2
v 4 1 1
v 4 1 2
v 4 2 1
v 4 2 2
v 3 2 0
v 3 2 1
v 3 3 0
v 3 3 1
v 4 2 0
v 4 2 1
v 4 3 0
v 4 3 1
v 3 2 1
v 3 2 2
v 3 3 1
v 3 3 2
v 4 2 1
v 4 2 2
v 4 3 1
v 4 3 2
v 4 0 0
v 4 0 1
v 4 1 0
v 4 1 1
v 5 0 0
v 5 0 1
v 5 1 0
v 5 1 1
v 4 0 1
v 4 0 2
v 4 1 1
v 4 1 2
v 5 0 1
v 5 0 2
v 5 1 1
v 5 1 2
v 4 1 0
v 4 1 1
v 4 2 0
v 4 2 1
v 5 1 0
v 5 1 1
v 5 2 0
v 5 2 1
v 4 1 1
v 4 1 2
v 4 2 1
v 4 2 2
v 5 1 1
v 5 1 2
v 5 2 1
v 5 2 2
v 4 2 0
v 4 2 1
v 4 3 0
v 4 3 1
v 5 2 0
v 5 2 1
v 5 3 0
v 5 3 1
v 4 2 1
v 4 2 2
v 4 3 1
v 4 3 2
v 5 2 1
v 5 2 2
v 5 3 1
v 5 3 2
v 5 0 1
v 5 0 2
v 5 1 1
v 5 1 2
v 6 0 1
v 6 0 2
v 6 1 1
v 6 1 2
v 5 2 1
v 5 2 2
v 5 3 1
v 5 3 2
v 6 2 1
v 6 2 2
v 6 3 1
v 6 3 2
f 1 2 4 3
f 5 7 8 6
f 1 5 6 2
f 3 4 8 7
f 1 3 7 5
f 2 6 8 4
f 9 10 12 11
f 13 15 16 14
f 9 13 14 10
f 11 12 16 15
f 9 11 15 13
f 10 14 16 12
f 17 18 20 19
f 21 23 24 22
f 17 21 22 18
f 19 20 24 23
f 17 19 23 21
f 18 22 24 20
f 25 26 28 27
f 29 31 32 30
f 25 29 30 26
f 27 28 32 31
f 25 27 31 29
f 26 30 32 28
f 33 34 36 35
f 37 39 40 38
f 33 37 38 34
f 35 36 40 39
f 33 35 39 37
f 34 38 40 36
f 41 42 44 43
f 45 47 48 46
f 41 45 46 42
f 43 44 48 47
f 41 43 47 45
f 42 46 48 44
f 49 50 52 51
f 53 55 56 54
f 49 53 54 50
f 51 52 56 55
f 49 51 55 53
f 50 54 56 52
f 57 58 60 59
f 61 63 64 62
f 57 61 62 58
f 59 60 64 63
f 57 59 63 61
f 58 62 64 60
f 65 66 68 67
f 69 71 72 70
f 65 69 70 66
f 67 68 72 71
f 65 67 71 69
f 66 70 72 68
f 73 74 76 75
f 77 79 80 78
f 73 77 78 74
f 75 76 80 79
f 73 75 79 77
f 74 78 80 76
f 81 82 84 83
f 85 87 88 86
f 81 85 86 82
f 83 84 88 87
f 81 83 87 85
f 82 86 88 84
f 89 90 92 91
f 93 95 96 94
f 89 93 94 90
f 91 92 96 95
f 89 91 95 93
f 90 94 96 92
f 97 98 100 99
f 101 103 104 102
f 97 101 102 98
f 99 100 104 103
f 97 99 103 101
f 98 102 104 100
f 105 106 108 107
f 109 111 112 110
f 105 109 110 106
f 107 108 112 111
f 105 107 111 109
f 106 110 112 108
f 113 114 116 115
f 117 119 120 118
f 113 117 118 114
f 115 116 120 119
f 113 115 119 117
f 114 118 120 116
f 121 122 124 123
f 125 127 128 126
f 121 125 126 122
f 123 124 128 127
f 121 123 127 125
f 122 126 128 124
f 129 130 132 131
f 133 135 136 134
f 129 133 134 130
f 131 132 136 135
f 129 131 135 133
f 130 134 136 132
f 137 138 140 139
f 141 143 144 142
f 137 141 142 138
f 139 140 144 143
f 137 139 143 141
f 138 142 144 140
f 145 146 148 147
f 149 151 152 150
f 145 149 150 146
f 147 148 152 151
f 145 147 151 149
f 146 150 152 148
f 153 154 156 155
f 157 159 160 158
f 153 157 158 154
f 155 156 160 159
f 153 155 159 157
f 154 158 160 156
f 161 162 164 163
f 165 167 168 166
f 161 165 166 162
f 163 164 168 167
f 161 163 167 165
f 162 166 168 164
f 169 170 172 171
f 173 175 176 174
f 169 173 174 170
f 171 172 176 175
f 169 171 175 173
f 170 174 176 172
f 177 178 180 179
f 181 183 184 182
f 177 181 182 178
f 179 180 184 183
f 177 179 183 181
f 178 182 184 180
f 185 186 188 187
f 189 191 192 190
f 185 189 190 186
f 187 188 192 191
f 185 187 191 189
f 186 190 192 188
f 193 194 196 195
f 197 199 200 198
f 193 197 198 194
f 195 196 200 199
f 193 195 199 197
f 194 198 200 196
f 201 202 204 203
f 205 207 208 206
f 201 205 206 202
f 203 204 208 207
f 201 203 207 205
f 202 206 208 204
f 209 210 212 211
f 213 215 216 214
f 209 213 214 210
f 211 212 216 215
f 209 211 215 213
f 210 214 216 212
f 217 218 220 219
f 221 223 224 222
f 217 221 222 218
f 219 220 224 223
f 217 219 223 221
f 218 222 224 220
f 225 226 228 227
f 229 231 232 230
f 225 229 230 226
f 227 228 232 231
f 225 227 231 229
f 226 230 232 228
f 233 234 236 235
f 237 239 240 238
f 233 237 238 234
f 235 236 240 239
f 233 235 239 237
f 234 238 240 236
f 241 242 244 243
f 245 247 248 246
f 241 245 246 242
f 243 244 248 247
f 241 243 247 245
f 242 246 248 244
f 249 250 252 251
f 253 255 256 254
f 249 253 254 250
f 251 252 256 255
f 249 251 255 253
f 250 254 256 252
f 257 258 260 259
f 261 263 264 262
f 257 261 262 258
f 259 260 264 263
f 257 259 263 261
f 258 262 264 260
