<svg xmlns="http://www.w3.org/2000/svg" viewBox="0 0 900 500" width="900" height="500">
  <rect width="900" height="500" rx="12" fill="#141419"/>
  <g stroke="#1A1A24" stroke-width="1"><path d="M60,90 H840 M60,170 H840 M60,250 H840 M60,330 H840 M60,410 H840"/></g>
  <polyline points="60,380 170,350 280,362 390,310 500,318 610,262 720,240 840,180" fill="none" stroke="#50A0F0" stroke-width="3" stroke-linejoin="round"/>
  <polyline points="60,410 170,400 280,392 390,370 500,352 610,330 720,300 840,268" fill="none" stroke="#C6A84B" stroke-width="2" stroke-dasharray="6 5"/>
  <g fill="#50A0F0"><circle cx="390" cy="310" r="5"/><circle cx="610" cy="262" r="5"/><circle cx="840" cy="180" r="6"/></g>
  <rect x="60" y="40" width="120" height="10" rx="5" fill="#E0ECF4" opacity="0.9"/>
  <rect x="200" y="40" width="70" height="10" rx="5" fill="#60C0F0" opacity="0.7"/>
</svg>
