# enemy.kissing-bug — sculpted blockout, 6 boxes (S3 re-sculpt 2026-09-02)
v -1 0 -1
v -1 0 1
v -1 1 -1
v -1 1 1
v 1 0 -1
v 1 0 1
v 1 1 -1
v 1 1 1
v -3 1 -2
v -3 1 2
v -3 2 -2
v -3 2 2
v 1 1 -2
v 1 1 2
v 1 2 -2
v 1 2 2
v -3 1 -1
v -3 1 1
v -3 2 -1
v -3 2 1
v -2 1 -1
v -2 1 1
v -2 2 -1
v -2 2 1
v 1 1 -1
v 1 1 1
v 1 3 -1
v 1 3 1
v 2 1 -1
v 2 1 1
v 2 3 -1
v 2 3 1
v 1 3 -1
v 1 3 1
v 1 5 -1
v 1 5 1
v 3 3 -1
v 3 3 1
v 3 5 -1
v 3 5 1
v 3 3 0
v 3 3 1
v 3 4 0
v 3 4 1
v 6 3 0
v 6 3 1
v 6 4 0
v 6 4 1
f 1 2 4 3
f 5 7 8 6
f 1 5 6 2
f 3 4 8 7
f 1 3 7 5
f 2 6 8 4
f 9 10 12 11
f 13 15 16 14
f 9 13 14 10
f 11 12 16 15
f 9 11 15 13
f 10 14 16 12
f 17 18 20 19
f 21 23 24 22
f 17 21 22 18
f 19 20 24 23
f 17 19 23 21
f 18 22 24 20
f 25 26 28 27
f 29 31 32 30
f 25 29 30 26
f 27 28 32 31
f 25 27 31 29
f 26 30 32 28
f 33 34 36 35
f 37 39 40 38
f 33 37 38 34
f 35 36 40 39
f 33 35 39 37
f 34 38 40 36
f 41 42 44 43
f 45 47 48 46
f 41 45 46 42
f 43 44 48 47
f 41 43 47 45
f 42 46 48 44
